<svg xmlns="http://www.w3.org/2000/svg" viewBox="0 0 48 48" fill="none">
  <rect width="48" height="48" rx="10" fill="#000000"/>
  <path d="M33.2 18.6C31.4 18.6 29.8 17.9 28.6 16.7C27.4 15.5 26.7 13.9 26.7 12.1H22.9V28.3C22.9 29.1 22.6 29.8 22.1 30.4C21.6 30.9 20.9 31.3 20.1 31.3C18.5 31.3 17.1 30 17.1 28.3C17.1 26.3 18.9 24.8 20.9 25.2V21.3C16.7 20.8 13.2 24.1 13.2 28.3C13.2 32.4 16.5 35.2 20.1 35.2C23.9 35.2 26.9 32.2 26.9 28.3V20.1C28.4 21.2 30.3 21.8 32.3 21.8V18C32.3 18 33.2 18.6 33.2 18.6Z" fill="white"/>
</svg>
